<svg width="25" height="28" viewBox="0 0 25 28" fill="none" xmlns="http://www.w3.org/2000/svg">
<mask id="path-1-inside-1_283_131" fill="white">
<path d="M12.8477 0C10.9609 2.38611 9.83496 5.40156 9.83496 8.67969C9.83514 16.4139 16.1046 22.6835 23.8389 22.6836C24.2285 22.6836 24.6145 22.666 24.9961 22.6348C22.4313 25.879 18.4616 27.9618 14.0049 27.9619C6.27046 27.9619 0 21.6915 0 13.957C5.1408e-05 6.61222 5.6545 0.588219 12.8477 0Z"/>
</mask>
<path d="M12.8477 0L13.6321 0.620249L15.0589 -1.18416L12.7662 -0.996673L12.8477 0ZM9.83496 8.67969H8.83496V8.67971L9.83496 8.67969ZM23.8389 22.6836L23.8389 23.6836H23.8389V22.6836ZM24.9961 22.6348L25.7806 23.2549L27.207 21.4506L24.9146 21.6381L24.9961 22.6348ZM14.0049 27.9619V28.9619H14.0049L14.0049 27.9619ZM0 13.957L-1 13.957V13.957H0ZM12.8477 0L12.0633 -0.620249C10.0418 1.93621 8.83496 5.16861 8.83496 8.67969H9.83496H10.835C10.835 5.63452 11.88 2.83602 13.6321 0.620249L12.8477 0ZM9.83496 8.67969L8.83496 8.67971C8.83515 16.9662 15.5524 23.6835 23.8389 23.6836L23.8389 22.6836L23.8389 21.6836C16.6569 21.6835 10.8351 15.8616 10.835 8.67966L9.83496 8.67969ZM23.8389 22.6836V23.6836C24.2586 23.6836 24.6719 23.6646 25.0776 23.6314L24.9961 22.6348L24.9146 21.6381C24.5571 21.6673 24.1984 21.6836 23.8389 21.6836V22.6836ZM24.9961 22.6348L24.2116 22.0146C21.8282 25.0294 18.1426 26.9618 14.0049 26.9619L14.0049 27.9619L14.0049 28.9619C18.7805 28.9618 23.0344 26.7286 25.7806 23.2549L24.9961 22.6348ZM14.0049 27.9619V26.9619C6.82274 26.9619 1 21.1392 1 13.957H0H-1C-1 22.2437 5.71817 28.9619 14.0049 28.9619V27.9619ZM0 13.957L1 13.957C1.00005 7.13722 6.25064 1.54281 12.9292 0.996673L12.8477 0L12.7662 -0.996673C5.05836 -0.366369 -0.999945 6.08722 -1 13.957L0 13.957Z" fill="white" mask="url(#path-1-inside-1_283_131)"/>
</svg>
