<svg width="150" height="50" viewBox="0 0 150 50" fill="none" xmlns="http://www.w3.org/2000/svg">
<path d="M50.6027 13.8575C50.5398 13.8175 50.3731 13.75 49.9644 13.75H41.5922C41.1736 13.75 41.0248 13.8209 40.9802 13.8513C40.9179 13.8936 40.7893 14.0125 40.6203 14.3353L28.5742 36.2476H35.886L44.8321 19.0223C44.9908 18.7564 45.2465 18.6195 45.5618 18.6195H45.9621C46.3932 18.6195 46.6095 18.8286 46.7149 19.0038L52.6949 30.1733C52.8074 30.3514 52.9009 30.5013 52.9891 30.6558L53.0738 30.8038L53.0548 30.8458L55.9463 36.2479H62.9505L51.0059 14.3402C50.8252 14.0395 50.6863 13.9105 50.6027 13.8575Z" fill="white"/>
<path d="M105.872 13.8575C105.809 13.8175 105.642 13.75 105.234 13.75H96.8617C96.4432 13.75 96.2944 13.8209 96.2497 13.8513C96.1874 13.8936 96.0589 14.0125 95.8898 14.3353L83.8438 36.2476H91.1556L100.102 19.0223C100.26 18.7564 100.516 18.6195 100.831 18.6195H101.232C101.663 18.6195 101.879 18.8286 101.984 19.0038L107.964 30.1733C108.077 30.3514 108.17 30.5013 108.259 30.6558L108.343 30.8038L108.324 30.8458L111.216 36.2479H118.22L106.275 14.3402C106.095 14.0395 105.956 13.9105 105.872 13.8575Z" fill="white"/>
<path d="M141.319 29.2325L142.137 29.1569C142.597 29.1146 143.03 29.058 143.423 28.9884C144.528 28.7955 145.454 28.4252 146.177 27.8875C146.906 27.3425 147.438 26.596 147.758 25.6685C148.062 24.7849 148.21 23.6933 148.21 22.332V21.0397C148.21 19.8097 148.083 18.7381 147.834 17.854C147.573 16.9252 147.14 16.1579 146.548 15.5729C145.947 14.9807 145.154 14.5442 144.192 14.2762C143.279 14.0231 142.153 13.8945 140.848 13.8945H121.113V36.2481H127.09V29.3234H133.482L141.55 36.2481H150L141.319 29.2325ZM127.09 24.666V19.2906H140.712C141.407 19.2906 141.83 19.4259 141.969 19.6923C142.189 20.12 142.3 20.8112 142.3 21.7477V22.763C142.3 23.7852 142.068 24.1825 141.93 24.3284C141.717 24.5525 141.308 24.666 140.712 24.666H127.09Z" fill="white"/>
<path d="M0 13.75L2.91383 18.8745H14.741V36.2479H17.8325H20.9241V18.8745H32.7513L35.6652 13.75H17.8325H0Z" fill="white"/>
<path d="M73.3171 13.75H55.4844L58.3985 18.8745H70.2257V36.2479H73.3171H76.4085V18.8745H88.2357L91.1495 13.75H73.3171Z" fill="white"/>
</svg>
